<svg width="46" height="46" viewBox="0 0 46 46" fill="none" xmlns="http://www.w3.org/2000/svg">
    <path fill-rule="evenodd" clip-rule="evenodd" d="M35.915 13.5227C35.915 14.312 35.2752 14.9518 34.486 14.9518L11.6207 14.9518C10.8314 14.9518 10.1916 14.312 10.1916 13.5227C10.1916 12.7334 10.8314 12.0936 11.6207 12.0936L34.486 12.0936C35.2752 12.0936 35.915 12.7334 35.915 13.5227Z" fill="currentColor"/>
    <path fill-rule="evenodd" clip-rule="evenodd" d="M35.915 23.0499C35.915 23.8392 35.2752 24.479 34.486 24.479L11.6207 24.479C10.8314 24.479 10.1916 23.8392 10.1916 23.0499C10.1916 22.2607 10.8314 21.6208 11.6207 21.6208L34.486 21.6208C35.2752 21.6208 35.915 22.2607 35.915 23.0499Z" fill="currentColor"/>
    <path fill-rule="evenodd" clip-rule="evenodd" d="M35.915 32.577C35.915 33.3663 35.2752 34.0061 34.486 34.0061L11.6207 34.0061C10.8314 34.0061 10.1916 33.3663 10.1916 32.577C10.1916 31.7878 10.8314 31.1479 11.6207 31.1479L34.486 31.1479C35.2752 31.1479 35.915 31.7878 35.915 32.577Z" fill="currentColor"/>
    </svg>
    