<svg width="46" height="36" viewBox="0 0 46 36" fill="none" xmlns="http://www.w3.org/2000/svg">
    <path d="M39.0751 3.43167C36.1478 2.0621 33.0179 1.06676 29.7457 0.5C29.3438 1.22656 28.8743 2.20381 28.5506 2.9812C25.0722 2.45808 21.6257 2.45808 18.2112 2.9812C17.8875 2.20381 17.4074 1.22656 17.0019 0.5C13.7261 1.06676 10.5926 2.06576 7.66542 3.43892C1.76122 12.361 0.160683 21.0614 0.960951 29.6383C4.87693 32.5626 8.67199 34.3391 12.403 35.5015C13.3242 34.2337 14.1458 32.8859 14.8536 31.4655C13.5056 30.9533 12.2145 30.3212 10.9946 29.5874C11.3182 29.3477 11.6348 29.097 11.9406 28.839C19.3813 32.3192 27.4658 32.3192 34.8176 28.839C35.1271 29.097 35.4436 29.3477 35.7637 29.5874C34.5402 30.3248 33.2456 30.9569 31.8976 31.4692C32.6053 32.8859 33.4234 34.2374 34.3481 35.5051C38.0827 34.3427 41.8813 32.5663 45.7973 29.6383C46.7363 19.6955 44.1932 11.0749 39.0751 3.43167ZM15.8673 24.3636C13.6337 24.3636 11.8019 22.2783 11.8019 19.739C11.8019 17.1998 13.5945 15.1109 15.8673 15.1109C18.1401 15.1109 19.9718 17.1961 19.9326 19.739C19.9362 22.2783 18.1401 24.3636 15.8673 24.3636ZM30.891 24.3636C28.6574 24.3636 26.8256 22.2783 26.8256 19.739C26.8256 17.1998 28.6182 15.1109 30.891 15.1109C33.1637 15.1109 34.9955 17.1961 34.9564 19.739C34.9564 22.2783 33.1637 24.3636 30.891 24.3636Z" fill="currentColor"/>
    </svg>
    