<svg width="25" height="25" viewBox="0 0 25 25" fill="none" xmlns="http://www.w3.org/2000/svg">
    <path d="M9.66699 17.5H5.66699C5.13656 17.5 4.62785 17.2893 4.25278 16.9142C3.87771 16.5391 3.66699 16.0304 3.66699 15.5V4.5C3.66699 3.96957 3.87771 3.46086 4.25278 3.08579C4.62785 2.71071 5.13656 2.5 5.66699 2.5H13.667C14.1974 2.5 14.7061 2.71071 15.0812 3.08579C15.4563 3.46086 15.667 3.96957 15.667 4.5V7.5H18.667L21.667 10.5V20.5C21.667 21.0304 21.4563 21.5391 21.0812 21.9142C20.7061 22.2893 20.1974 22.5 19.667 22.5H11.667C11.1366 22.5 10.6279 22.2893 10.2528 21.9142C9.87771 21.5391 9.66699 21.0304 9.66699 20.5V17.5ZM9.66699 15.5V9.5C9.66699 8.96957 9.87771 8.46086 10.2528 8.08579C10.6279 7.71071 11.1366 7.5 11.667 7.5H13.667V4.5H5.66699V15.5H9.66699ZM17.839 9.5H11.667V20.5H19.667V11.328L17.839 9.5Z" fill="currentColor"/>
    </svg>
    