<svg width="35" height="38" viewBox="0 0 35 38" fill="none" xmlns="http://www.w3.org/2000/svg">
    <path d="M32.7681 11.3745L21.5038 1.49949C20.4712 0.57591 19.1345 0.0653076 17.7491 0.0653076C16.3637 0.0653076 15.0269 0.57591 13.9943 1.49949L2.73009 11.3745C2.13378 11.9078 1.65792 12.562 1.33421 13.2936C1.0105 14.0252 0.846358 14.8174 0.852717 15.6173V32.0256C0.852717 33.5193 1.4461 34.9519 2.50233 36.0081C3.55856 37.0643 4.99111 37.6577 6.48484 37.6577H29.0133C30.5071 37.6577 31.9396 37.0643 32.9958 36.0081C34.0521 34.9519 34.6454 33.5193 34.6454 32.0256V15.5986C34.6491 14.8017 34.4837 14.0132 34.1601 13.2851C33.8365 12.5569 33.362 11.9057 32.7681 11.3745ZM21.5038 33.903H13.9943V24.5161C13.9943 24.0182 14.1921 23.5407 14.5442 23.1886C14.8963 22.8365 15.3738 22.6387 15.8717 22.6387H19.6265C20.1244 22.6387 20.6019 22.8365 20.954 23.1886C21.306 23.5407 21.5038 24.0182 21.5038 24.5161V33.903ZM30.8907 32.0256C30.8907 32.5235 30.6929 33.001 30.3408 33.3531C29.9888 33.7052 29.5112 33.903 29.0133 33.903H25.2586V24.5161C25.2586 23.0224 24.6652 21.5898 23.609 20.5336C22.5527 19.4774 21.1202 18.884 19.6265 18.884H15.8717C14.378 18.884 12.9454 19.4774 11.8892 20.5336C10.833 21.5898 10.2396 23.0224 10.2396 24.5161V33.903H6.48484C5.98693 33.903 5.50941 33.7052 5.15734 33.3531C4.80526 33.001 4.60746 32.5235 4.60746 32.0256V15.5986C4.6078 15.332 4.6649 15.0686 4.77496 14.8258C4.88502 14.583 5.04552 14.3665 5.24577 14.1905L16.51 4.33433C16.8526 4.03335 17.2931 3.86736 17.7491 3.86736C18.2051 3.86736 18.6455 4.03335 18.9881 4.33433L30.2524 14.1905C30.4526 14.3665 30.6131 14.583 30.7232 14.8258C30.8333 15.0686 30.8904 15.332 30.8907 15.5986V32.0256Z" fill="currentColor"/>
    </svg>
    