<?xml version="1.0" encoding="utf-8"?>
<svg width="82" height="81" viewBox="0 0 49.966 49.997" fill="none" preserveAspectRatio="none" xmlns="http://www.w3.org/2000/svg" xmlns:bx="https://boxy-svg.com"><g filter="url(#filter0_bdi_109_1774)" transform="matrix(0.975022, 0, 0, 0.969712, -7.071161, -10.309352)" style=""><g clip-path="url(#clip0_109_1774)"><rect x="9" y="12.5" width="48" height="48" rx="12" fill="url(#paint0_linear_109_1774)" fill-opacity="0.04" shape-rendering="crispEdges"/><g style="mix-blend-mode:plus-lighter" opacity="0.5" filter="url(#filter1_f_109_1774)"><rect x="19" y="22.5" width="28" height="28" rx="6" fill="url(#paint1_radial_109_1774)"/><rect x="19" y="22.5" width="28" height="28" rx="6" fill="url(#paint2_radial_109_1774)"/><rect x="19" y="22.5" width="28" height="28" rx="6" fill="url(#paint3_radial_109_1774)"/></g><rect x="19" y="22.5" width="28" height="28" rx="6" fill="url(#paint4_radial_109_1774)"/><rect x="19" y="22.5" width="28" height="28" rx="6" fill="url(#paint5_radial_109_1774)"/><rect x="19" y="22.5" width="28" height="28" rx="6" fill="url(#paint6_radial_109_1774)"/><path d="M40 31C40 31.8284 39.3284 32.5 38.5 32.5C37.6716 32.5 37 31.8284 37 31C37 30.1716 37.6716 29.5 38.5 29.5C39.3284 29.5 40 30.1716 40 31Z" fill="#F9F9F9"/><path fill-rule="evenodd" clip-rule="evenodd" d="M33 41.5C35.7614 41.5 38 39.2614 38 36.5C38 33.7386 35.7614 31.5 33 31.5C30.2386 31.5 28 33.7386 28 36.5C28 39.2614 30.2386 41.5 33 41.5ZM33 39.5C34.6569 39.5 36 38.1569 36 36.5C36 34.8431 34.6569 33.5 33 33.5C31.3431 33.5 30 34.8431 30 36.5C30 38.1569 31.3431 39.5 33 39.5Z" fill="#F9F9F9"/><path fill-rule="evenodd" clip-rule="evenodd" d="M23 36.1C23 32.7397 23 31.0595 23.654 29.7761C24.2292 28.6471 25.1471 27.7292 26.2761 27.154C27.5595 26.5 29.2397 26.5 32.6 26.5H33.4C36.7603 26.5 38.4405 26.5 39.7239 27.154C40.8529 27.7292 41.7708 28.6471 42.346 29.7761C43 31.0595 43 32.7397 43 36.1V36.9C43 40.2603 43 41.9405 42.346 43.2239C41.7708 44.3529 40.8529 45.2708 39.7239 45.846C38.4405 46.5 36.7603 46.5 33.4 46.5H32.6C29.2397 46.5 27.5595 46.5 26.2761 45.846C25.1471 45.2708 24.2292 44.3529 23.654 43.2239C23 41.9405 23 40.2603 23 36.9V36.1ZM32.6 28.5H33.4C35.1132 28.5 36.2777 28.5016 37.1779 28.5751C38.0548 28.6467 38.5032 28.7766 38.816 28.936C39.5686 29.3195 40.1805 29.9314 40.564 30.684C40.7234 30.9968 40.8533 31.4452 40.9249 32.3221C40.9984 33.2223 41 34.3868 41 36.1V36.9C41 38.6132 40.9984 39.7777 40.9249 40.6779C40.8533 41.5548 40.7234 42.0032 40.564 42.316C40.1805 43.0686 39.5686 43.6805 38.816 44.064C38.5032 44.2234 38.0548 44.3533 37.1779 44.4249C36.2777 44.4984 35.1132 44.5 33.4 44.5H32.6C30.8868 44.5 29.7223 44.4984 28.8221 44.4249C27.9452 44.3533 27.4968 44.2234 27.184 44.064C26.4314 43.6805 25.8195 43.0686 25.436 42.316C25.2766 42.0032 25.1467 41.5548 25.0751 40.6779C25.0016 39.7777 25 38.6132 25 36.9V36.1C25 34.3868 25.0016 33.2223 25.0751 32.3221C25.1467 31.4452 25.2766 30.9968 25.436 30.684C25.8195 29.9314 26.4314 29.3195 27.184 28.936C27.4968 28.7766 27.9452 28.6467 28.8221 28.5751C29.7223 28.5016 30.8868 28.5 32.6 28.5Z" fill="#F9F9F9"/><g filter="url(#filter2_f_109_1774)"><ellipse cx="33.5" cy="60" rx="11.5" ry="6.5" fill="#D4467E"/></g></g><rect x="9" y="12.5" width="48" height="48" rx="12" stroke="url(#paint7_linear_109_1774)" stroke-opacity="0.5" stroke-width="0.8" shape-rendering="crispEdges"/></g><defs><filter id="filter0_bdi_109_1774" x="-11.4004" y="-7.90002" width="92.8008" height="88.8" filterUnits="userSpaceOnUse" color-interpolation-filters="sRGB"><feFlood flood-opacity="0" result="BackgroundImageFix"/><feGaussianBlur in="BackgroundImageFix" stdDeviation="10"/><feComposite in2="SourceAlpha" operator="in" result="effect1_backgroundBlur_109_1774"/><feColorMatrix in="SourceAlpha" type="matrix" values="0 0 0 0 0 0 0 0 0 0 0 0 0 0 0 0 0 0 127 0" result="hardAlpha"/><feOffset dx="8" dy="4"/><feGaussianBlur stdDeviation="8"/><feComposite in2="hardAlpha" operator="out"/><feColorMatrix type="matrix" values="0 0 0 0 0 0 0 0 0 0 0 0 0 0 0 0 0 0 0.08 0"/><feBlend mode="normal" in2="effect1_backgroundBlur_109_1774" result="effect2_dropShadow_109_1774"/><feBlend mode="normal" in="SourceGraphic" in2="effect2_dropShadow_109_1774" result="shape"/><feColorMatrix in="SourceAlpha" type="matrix" values="0 0 0 0 0 0 0 0 0 0 0 0 0 0 0 0 0 0 127 0" result="hardAlpha"/><feOffset/><feGaussianBlur stdDeviation="4"/><feComposite in2="hardAlpha" operator="arithmetic" k2="-1" k3="1"/><feColorMatrix type="matrix" values="0 0 0 0 0.744549 0 0 0 0 0.0509804 0 0 0 0 0.988235 0 0 0 0.32 0"/><feBlend mode="normal" in2="shape" result="effect3_innerShadow_109_1774"/></filter><filter id="filter1_f_109_1774" x="5" y="8.5" width="56" height="56" filterUnits="userSpaceOnUse" color-interpolation-filters="sRGB"><feFlood flood-opacity="0" result="BackgroundImageFix"/><feBlend mode="normal" in="SourceGraphic" in2="BackgroundImageFix" result="shape"/><feGaussianBlur stdDeviation="6" result="effect1_foregroundBlur_109_1774"/></filter><filter id="filter2_f_109_1774" x="4" y="35.5" width="59" height="49" filterUnits="userSpaceOnUse" color-interpolation-filters="sRGB"><feFlood flood-opacity="0" result="BackgroundImageFix"/><feBlend mode="normal" in="SourceGraphic" in2="BackgroundImageFix" result="shape"/><feGaussianBlur stdDeviation="9" result="effect1_foregroundBlur_109_1774"/></filter><linearGradient id="paint0_linear_109_1774" x1="9" y1="12.5" x2="57" y2="60.5" gradientUnits="userSpaceOnUse"><stop stop-color="#F8FBFF"/><stop offset="1" stop-color="white" stop-opacity="0"/></linearGradient><radialGradient id="paint1_radial_109_1774" cx="0" cy="0" r="1" gradientUnits="userSpaceOnUse" gradientTransform="translate(29 43.5) rotate(-55.3758) scale(25.5196)"><stop stop-color="#B13589"/><stop offset="0.7931" stop-color="#C62F94"/><stop offset="1" stop-color="#8A3AC8"/></radialGradient><radialGradient id="paint2_radial_109_1774" cx="0" cy="0" r="1" gradientUnits="userSpaceOnUse" gradientTransform="translate(28 51.5) rotate(-65.1363) scale(22.5942)"><stop stop-color="#E0E8B7"/><stop offset="0.4447" stop-color="#FB8A2E"/><stop offset="0.7147" stop-color="#E2425C"/><stop offset="1" stop-color="#E2425C" stop-opacity="0"/></radialGradient><radialGradient id="paint3_radial_109_1774" cx="0" cy="0" r="1" gradientUnits="userSpaceOnUse" gradientTransform="translate(17.5 23.5) rotate(-8.1301) scale(38.8909 8.31836)"><stop offset="0.1567" stop-color="#406ADC"/><stop offset="0.4678" stop-color="#6A45BE"/><stop offset="1" stop-color="#6A45BE" stop-opacity="0"/></radialGradient><radialGradient id="paint4_radial_109_1774" cx="0" cy="0" r="1" gradientUnits="userSpaceOnUse" gradientTransform="translate(29 43.5) rotate(-55.3758) scale(25.5196)"><stop stop-color="#B13589"/><stop offset="0.7931" stop-color="#C62F94"/><stop offset="1" stop-color="#8A3AC8"/></radialGradient><radialGradient id="paint5_radial_109_1774" cx="0" cy="0" r="1" gradientUnits="userSpaceOnUse" gradientTransform="translate(28 51.5) rotate(-65.1363) scale(22.5942)"><stop stop-color="#E0E8B7"/><stop offset="0.4447" stop-color="#FB8A2E"/><stop offset="0.7147" stop-color="#E2425C"/><stop offset="1" stop-color="#E2425C" stop-opacity="0"/></radialGradient><radialGradient id="paint6_radial_109_1774" cx="0" cy="0" r="1" gradientUnits="userSpaceOnUse" gradientTransform="translate(17.5 23.5) rotate(-8.1301) scale(38.8909 8.31836)"><stop offset="0.1567" stop-color="#406ADC"/><stop offset="0.4678" stop-color="#6A45BE"/><stop offset="1" stop-color="#6A45BE" stop-opacity="0"/></radialGradient><linearGradient id="paint7_linear_109_1774" x1="10" y1="11.5" x2="55.5" y2="60.5" gradientUnits="userSpaceOnUse"><stop stop-color="#D8D8D8" stop-opacity="0.05"/><stop offset="1" stop-color="white" stop-opacity="0.4"/></linearGradient><clipPath id="clip0_109_1774"><rect x="9" y="12.5" width="48" height="48" rx="12" fill="white"/></clipPath><bx:export><bx:file format="svg" path="Sin título.svg"/></bx:export></defs></svg>