<svg width="22" height="24" viewBox="0 0 22 24" fill="none" xmlns="http://www.w3.org/2000/svg">
    <path d="M12.226 0.932794C12.2456 0.932989 12.2651 0.933184 12.2853 0.933385C13.6378 0.947134 15.0014 1.18503 16.2897 1.60331C16.3155 1.61165 16.3414 1.61998 16.368 1.62857C16.5199 1.67917 16.6641 1.73924 16.8087 1.80883C16.8639 1.83534 16.9192 1.86049 16.9753 1.88467C17.5885 2.15114 18.1484 2.50331 18.6656 2.93433C18.6904 2.95446 18.7153 2.97458 18.7409 2.99532C18.9374 3.15933 19.1175 3.33981 19.2969 3.52312C19.321 3.54773 19.3452 3.57233 19.3701 3.59768C19.5187 3.75111 19.6545 3.90963 19.7821 4.08189C19.8008 4.10703 19.8194 4.13218 19.8387 4.15809C19.8896 4.23014 19.94 4.30258 19.9898 4.37544C19.9999 4.3902 20.01 4.40495 20.0205 4.42015C20.5948 5.26399 20.9258 6.20986 21.0285 7.23098C21.031 7.25402 21.0335 7.27706 21.036 7.3008C21.1232 8.12692 21.0075 9.00271 20.7688 9.79295C20.7612 9.81968 20.7535 9.84641 20.7457 9.87395C20.3834 11.0773 19.6202 12.2356 18.6396 12.9954C18.6256 13.0065 18.6117 13.0175 18.5973 13.0289C17.6679 13.7633 16.5927 14.2062 15.4581 14.479C13.9951 14.8314 12.4826 15.4261 11.5509 16.7049C11.5345 16.727 11.5181 16.749 11.5012 16.7718C11.3602 16.9655 11.2356 17.1689 11.1132 17.3754C11.0873 17.4191 11.0611 17.4627 11.0348 17.5062C10.9173 17.7059 10.8218 17.9145 10.7262 18.1258C10.6841 18.2185 10.6403 18.3101 10.5949 18.4011C10.4894 18.6125 10.3939 18.8282 10.2997 19.0451C10.2925 19.0615 10.2854 19.078 10.278 19.0949C10.2111 19.2489 10.1446 19.4029 10.0783 19.5571C9.92199 19.9212 9.7642 20.2818 9.57782 20.6308C9.54127 20.701 9.50736 20.7724 9.47339 20.844C9.19719 21.4256 8.84284 21.9726 8.40901 22.4427C8.39617 22.4569 8.38333 22.4711 8.3701 22.4857C8.14571 22.7329 7.91035 22.933 7.63003 23.1099C7.60671 23.1248 7.60671 23.1248 7.58293 23.1401C7.14781 23.4142 6.65697 23.5447 6.14997 23.5636C6.12485 23.5645 6.09972 23.5655 6.07383 23.5665C5.49821 23.5856 4.9846 23.5049 4.46218 23.2433C4.43768 23.2318 4.41318 23.2204 4.38794 23.2086C4.02621 23.034 3.73431 22.7799 3.44951 22.4961C3.42973 22.4768 3.40995 22.4575 3.38957 22.4377C2.96037 22.0112 2.63693 21.4648 2.38907 20.9115C2.35568 20.8372 2.32139 20.7638 2.28419 20.6913C2.16309 20.4552 2.07752 20.2146 1.99586 19.9617C1.96677 19.8725 1.93675 19.7836 1.90667 19.6947C1.68852 19.0445 1.53152 18.3878 1.41125 17.711C1.39475 17.6199 1.37626 17.5294 1.35763 17.4388C1.20676 16.6626 1.12371 15.8655 1.06065 15.077C1.05858 15.0522 1.05651 15.0273 1.05438 15.0017C0.90615 13.1812 0.861612 11.3004 1.12827 9.48941C1.13875 9.41792 1.14892 9.34639 1.15903 9.27484C1.16572 9.22793 1.17241 9.18102 1.17911 9.13411C1.18358 9.10252 1.18358 9.10252 1.18814 9.0703C1.22989 8.78234 1.29395 8.50077 1.3625 8.2184C1.367 8.19983 1.37151 8.18125 1.37615 8.16211C1.66708 6.96839 1.66708 6.96838 1.93774 6.44218C1.96792 6.38015 1.99285 6.31831 2.01692 6.25356C2.17367 5.84596 2.38192 5.45986 2.6186 5.096C2.63039 5.07777 2.64218 5.05953 2.65433 5.04075C2.79786 4.81973 2.9473 4.60717 3.11195 4.40213C3.14496 4.35877 3.17796 4.31541 3.21095 4.27203C3.46761 3.94268 3.7575 3.63164 4.07269 3.36133C4.08681 3.34912 4.10093 3.33691 4.11547 3.32434C4.36803 3.10661 4.62783 2.90641 4.9036 2.72084C4.93005 2.70288 4.95649 2.68492 4.98373 2.66642C5.3603 2.41958 5.767 2.21085 6.17594 2.02697C6.20325 2.01428 6.23056 2.00158 6.2587 1.9885C6.50032 1.87842 6.74749 1.78869 6.99762 1.70141C7.05162 1.68254 7.10552 1.66341 7.1594 1.64417C7.25533 1.61044 7.35158 1.57798 7.44827 1.5466C7.46671 1.54059 7.48514 1.53458 7.50414 1.5284C8.11564 1.33217 8.74909 1.20729 9.38263 1.11491C9.47625 1.10116 9.56863 1.08472 9.66125 1.06508C9.834 1.02846 10.0078 1.01042 10.1833 0.993074C10.2295 0.988468 10.2757 0.983655 10.3219 0.978636C10.9545 0.911167 11.5909 0.925423 12.226 0.932794Z" fill="#F9F9F9"/>
    </svg>
    