<svg width="24" height="25" viewBox="0 0 24 25" fill="none" xmlns="http://www.w3.org/2000/svg">
    <path d="M12 22.5C6.477 22.5 2 18.023 2 12.5C2 6.977 6.477 2.5 12 2.5C17.523 2.5 22 6.977 22 12.5C22 18.023 17.523 22.5 12 22.5ZM12 20.5C14.1217 20.5 16.1566 19.6571 17.6569 18.1569C19.1571 16.6566 20 14.6217 20 12.5C20 10.3783 19.1571 8.34344 17.6569 6.84315C16.1566 5.34285 14.1217 4.5 12 4.5C9.87827 4.5 7.84344 5.34285 6.34315 6.84315C4.84285 8.34344 4 10.3783 4 12.5C4 14.6217 4.84285 16.6566 6.34315 18.1569C7.84344 19.6571 9.87827 20.5 12 20.5ZM8.08 15.894C8.02826 15.7732 8.00082 15.6434 7.99925 15.5119C7.99769 15.3805 8.02202 15.2501 8.07086 15.1281C8.11971 15.006 8.1921 14.8948 8.28392 14.8008C8.37574 14.7068 8.48518 14.6317 8.606 14.58C8.72682 14.5283 8.85664 14.5008 8.98806 14.4993C9.11948 14.4977 9.24992 14.522 9.37194 14.5709C9.49395 14.6197 9.60516 14.6921 9.69919 14.7839C9.79323 14.8757 9.86826 14.9852 9.92 15.106C10.0948 15.5127 10.385 15.8592 10.7547 16.1027C11.1244 16.3462 11.5573 16.476 12 16.476C12.4427 16.476 12.8756 16.3462 13.2453 16.1027C13.615 15.8592 13.9052 15.5127 14.08 15.106C14.1317 14.9852 14.2068 14.8757 14.3008 14.7839C14.3948 14.6921 14.506 14.6197 14.6281 14.5709C14.7501 14.522 14.8805 14.4977 15.0119 14.4993C15.1434 14.5008 15.2732 14.5283 15.394 14.58C15.5148 14.6317 15.6243 14.7068 15.7161 14.8008C15.8079 14.8948 15.8803 15.006 15.9291 15.1281C15.978 15.2501 16.0023 15.3805 16.0007 15.5119C15.9992 15.6434 15.9717 15.7732 15.92 15.894C15.5915 16.6615 15.0449 17.3156 14.3481 17.7753C13.6513 18.2351 12.8348 18.4801 12 18.4801C11.1652 18.4801 10.3487 18.2351 9.65189 17.7753C8.95506 17.3156 8.4085 16.6615 8.08 15.894ZM9 8.5C9.26522 8.5 9.51957 8.60536 9.70711 8.79289C9.89464 8.98043 10 9.23478 10 9.5V11.5C10 11.7652 9.89464 12.0196 9.70711 12.2071C9.51957 12.3946 9.26522 12.5 9 12.5C8.73478 12.5 8.48043 12.3946 8.29289 12.2071C8.10536 12.0196 8 11.7652 8 11.5V9.5C8 9.23478 8.10536 8.98043 8.29289 8.79289C8.48043 8.60536 8.73478 8.5 9 8.5ZM15 8.5C15.2652 8.5 15.5196 8.60536 15.7071 8.79289C15.8946 8.98043 16 9.23478 16 9.5V11.5C16 11.7652 15.8946 12.0196 15.7071 12.2071C15.5196 12.3946 15.2652 12.5 15 12.5C14.7348 12.5 14.4804 12.3946 14.2929 12.2071C14.1054 12.0196 14 11.7652 14 11.5V9.5C14 9.23478 14.1054 8.98043 14.2929 8.79289C14.4804 8.60536 14.7348 8.5 15 8.5Z" fill="currentColor"/>
    </svg>
    