<?xml version="1.0" encoding="utf-8"?>
<svg width="82" height="81" viewBox="0 0 49.966 49.997" fill="none" preserveAspectRatio="none" xmlns="http://www.w3.org/2000/svg" xmlns:bx="https://boxy-svg.com"><defs><bx:export><bx:file format="svg" path="Sin título.svg"/></bx:export><filter id="filter0_bdi_29_256" x="-8.39999" y="-7.4" width="92.8" height="88.8" filterUnits="userSpaceOnUse" color-interpolation-filters="sRGB"><feFlood flood-opacity="0" result="BackgroundImageFix"/><feGaussianBlur in="BackgroundImageFix" stdDeviation="10"/><feComposite in2="SourceAlpha" operator="in" result="effect1_backgroundBlur_29_256"/><feColorMatrix in="SourceAlpha" type="matrix" values="0 0 0 0 0 0 0 0 0 0 0 0 0 0 0 0 0 0 127 0" result="hardAlpha"/><feOffset dx="8" dy="4"/><feGaussianBlur stdDeviation="8"/><feComposite in2="hardAlpha" operator="out"/><feColorMatrix type="matrix" values="0 0 0 0 0 0 0 0 0 0 0 0 0 0 0 0 0 0 0.08 0"/><feBlend mode="normal" in2="effect1_backgroundBlur_29_256" result="effect2_dropShadow_29_256"/><feBlend mode="normal" in="SourceGraphic" in2="effect2_dropShadow_29_256" result="shape"/><feColorMatrix in="SourceAlpha" type="matrix" values="0 0 0 0 0 0 0 0 0 0 0 0 0 0 0 0 0 0 127 0" result="hardAlpha"/><feOffset/><feGaussianBlur stdDeviation="4"/><feComposite in2="hardAlpha" operator="arithmetic" k2="-1" k3="1"/><feColorMatrix type="matrix" values="0 0 0 0 0.0323264 0 0 0 0 0.511567 0 0 0 0 0.554167 0 0 0 1 0"/><feBlend mode="normal" in2="shape" result="effect3_innerShadow_29_256"/></filter><filter id="filter1_f_29_256" x="8" y="9" width="56" height="56" filterUnits="userSpaceOnUse" color-interpolation-filters="sRGB"><feFlood flood-opacity="0" result="BackgroundImageFix"/><feBlend mode="normal" in="SourceGraphic" in2="BackgroundImageFix" result="shape"/><feGaussianBlur stdDeviation="6" result="effect1_foregroundBlur_29_256"/></filter><filter id="filter2_f_29_256" x="7" y="36" width="59" height="49" filterUnits="userSpaceOnUse" color-interpolation-filters="sRGB"><feFlood flood-opacity="0" result="BackgroundImageFix"/><feBlend mode="normal" in="SourceGraphic" in2="BackgroundImageFix" result="shape"/><feGaussianBlur stdDeviation="9" result="effect1_foregroundBlur_29_256"/></filter><filter id="filter3_f_29_256" x="0" y="1" width="58" height="58" filterUnits="userSpaceOnUse" color-interpolation-filters="sRGB"><feFlood flood-opacity="0" result="BackgroundImageFix"/><feBlend mode="normal" in="SourceGraphic" in2="BackgroundImageFix" result="shape"/><feGaussianBlur stdDeviation="10" result="effect1_foregroundBlur_29_256"/></filter><linearGradient id="paint0_linear_29_256" x1="12" y1="13" x2="60" y2="61" gradientUnits="userSpaceOnUse"><stop stop-color="#F8FBFF"/><stop offset="1" stop-color="white" stop-opacity="0"/></linearGradient><linearGradient id="paint1_linear_29_256" x1="13" y1="12" x2="58.5" y2="61" gradientUnits="userSpaceOnUse"><stop stop-color="#D8D8D8" stop-opacity="0.05"/><stop offset="1" stop-color="white" stop-opacity="0.4"/></linearGradient><clipPath id="clip0_29_256"><rect x="12" y="13" width="48" height="48" rx="12" fill="white"/></clipPath></defs><g filter="url(#filter0_bdi_29_256)" transform="matrix(0.951696, 0, 0, 0.965243, -9.10175, -10.671263)" style="" id="object-0"><g clip-path="url(#clip0_29_256)"><rect x="12" y="13" width="48" height="48" rx="12" fill="url(#paint0_linear_29_256)" fill-opacity="0.04" shape-rendering="crispEdges"/><g style="mix-blend-mode:plus-lighter" opacity="0.5" filter="url(#filter1_f_29_256)"><path d="M28.4509 40.7926C28.6071 39.4987 29.1378 38.7742 30.1378 38.0316C31.5687 37.0258 33.356 37.5948 33.356 37.5948V34.2196C33.7906 34.2085 34.2253 34.2342 34.655 34.2966V38.6401C34.655 38.6401 32.8682 38.0711 31.4374 39.0774C30.4379 39.8196 29.9061 40.5445 29.7504 41.8384C29.7455 42.541 29.8774 43.4594 30.4846 44.2536C30.3344 44.1766 30.1814 44.0889 30.0255 43.9904C28.688 43.0923 28.4444 41.7448 28.4509 40.7926ZM42.0351 27.9789C41.0508 26.9003 40.6785 25.8113 40.544 25.0463H41.7822C41.7822 25.0463 41.5353 27.0522 43.3346 29.0248L43.3596 29.0513C42.8746 28.7462 42.4299 28.3862 42.0351 27.9789ZM48 31.0369V35.293C48 35.293 46.4199 35.2311 45.2506 34.9336C43.6179 34.5176 42.5684 33.8795 42.5684 33.8795C42.5684 33.8795 41.8435 33.4244 41.7849 33.3927V42.1817C41.7849 42.671 41.6509 43.8932 41.2423 44.9125C40.7089 46.2459 39.8858 47.1211 39.7344 47.3C39.7344 47.3 38.7333 48.4832 36.9671 49.2799C35.3751 49.9986 33.9773 49.9804 33.5595 49.9986C33.5595 49.9986 31.1433 50.0943 28.9691 48.6813C28.4989 48.3699 28.06 48.0171 27.6581 47.6277L27.669 47.6355C29.8437 49.0485 32.2594 48.9528 32.2594 48.9528C32.6778 48.9346 34.0755 48.9528 35.667 48.2341C37.4316 47.4373 38.4343 46.2542 38.4343 46.2542C38.5841 46.0753 39.411 45.2001 39.9422 43.8661C40.3497 42.8473 40.4848 41.6247 40.4848 41.1353V32.3474C40.5434 32.3796 41.2678 32.8347 41.2678 32.8347C41.2678 32.8347 42.3178 33.4733 43.9505 33.8888C45.1203 34.1863 46.6999 34.2482 46.6999 34.2482V30.9131C47.2403 31.0343 47.701 31.067 48 31.0369Z" fill="#EE1D52"/><path d="M46.7004 30.9131V34.2472C46.7004 34.2472 45.1209 34.1853 43.951 33.8878C42.3183 33.4718 41.2684 32.8336 41.2684 32.8336C41.2684 32.8336 40.544 32.3786 40.4854 32.3464V41.1363C40.4854 41.6257 40.3514 42.8484 39.9428 43.8672C39.4094 45.2011 38.5863 46.0763 38.4349 46.2552C38.4349 46.2552 37.4332 47.4384 35.6676 48.2351C34.0761 48.9538 32.6783 48.9356 32.26 48.9538C32.26 48.9538 29.8443 49.0495 27.6695 47.6365L27.6587 47.6287C27.429 47.4064 27.2129 47.1716 27.0113 46.9256C26.3173 46.0795 25.8919 45.0789 25.785 44.7934C25.7848 44.7922 25.7848 44.7909 25.785 44.7897C25.613 44.2936 25.2516 43.1021 25.301 41.9481C25.3884 39.9121 26.1046 38.6624 26.294 38.3494C26.7955 37.4956 27.4478 36.7318 28.2219 36.0918C28.9049 35.5396 29.6792 35.1002 30.5128 34.7917C31.414 34.4294 32.379 34.2353 33.356 34.2196V37.5948C33.356 37.5948 31.5687 37.0279 30.1384 38.0316C29.1384 38.7742 28.6077 39.4987 28.4514 40.7926C28.4449 41.7448 28.6885 43.0923 30.025 43.9909C30.1809 44.0897 30.3339 44.1775 30.484 44.2541C30.7175 44.5576 31.0017 44.822 31.3251 45.0368C32.6306 45.8631 33.7245 45.9209 35.1233 45.3842C36.0561 45.0253 36.7582 44.2166 37.0838 43.3206C37.2883 42.761 37.2856 42.1978 37.2856 41.6153V25.0463H40.5413C40.6758 25.8113 41.0481 26.9003 42.0324 27.9789C42.4272 28.3862 42.8719 28.7462 43.3569 29.0513C43.5001 29.1995 44.2326 29.9323 45.173 30.3821C45.6592 30.6146 46.1717 30.7928 46.7004 30.9131Z" fill="black"/><path d="M24.4893 43.757V43.7596L24.5701 43.9785C24.5608 43.953 24.5308 43.8755 24.4893 43.757Z" fill="#69C9D0"/><path d="M30.5128 34.7917C29.6792 35.1002 28.905 35.5396 28.2219 36.0918C27.4476 36.7333 26.7955 37.4987 26.2946 38.3541C26.1052 38.6661 25.389 39.9169 25.3016 41.9529C25.2522 43.1069 25.6136 44.2983 25.7856 44.7945C25.7854 44.7957 25.7854 44.7969 25.7856 44.7981C25.8941 45.081 26.3179 46.0816 27.0119 46.9303C27.2135 47.1764 27.4296 47.4111 27.6592 47.6334C26.9236 47.1458 26.2675 46.5562 25.7124 45.884C25.0243 45.0451 24.6 44.0549 24.4893 43.7627C24.4892 43.7606 24.4892 43.7585 24.4893 43.7564V43.7528C24.3168 43.2572 23.9543 42.0652 24.0048 40.9096C24.0921 38.8736 24.8084 37.6239 24.9977 37.3109C25.4985 36.4554 26.1507 35.6899 26.9251 35.0486C27.608 34.4962 28.3823 34.0568 29.216 33.7485C29.736 33.5417 30.2778 33.3891 30.8319 33.2934C31.6669 33.1537 32.5198 33.1416 33.3588 33.2575V34.2196C32.3808 34.235 31.4148 34.4291 30.5128 34.7917Z" fill="#69C9D0"/><path d="M40.544 25.0464H37.2883V41.6159C37.2883 42.1983 37.2883 42.76 37.0865 43.3211C36.7576 44.2167 36.0582 45.0253 35.126 45.3842C33.7266 45.923 32.6327 45.8632 31.3278 45.0368C31.0038 44.823 30.7189 44.5594 30.4845 44.2567C31.5963 44.8251 32.5915 44.8152 33.8243 44.341C34.756 43.9821 35.4565 43.1734 35.7842 42.2774C35.9893 41.7178 35.9866 41.1546 35.9866 40.5726V24H40.4821C40.4821 24 40.4316 24.4119 40.544 25.0464ZM46.7004 29.991V30.9131C46.1726 30.7926 45.661 30.6145 45.1757 30.3821C44.2353 29.9323 43.5028 29.1995 43.3596 29.0513C43.5258 29.1559 43.6983 29.2511 43.8761 29.3363C45.0194 29.8834 46.1453 30.0467 46.7004 29.991Z" fill="#69C9D0"/></g><path d="M28.4509 40.7926C28.6071 39.4987 29.1378 38.7742 30.1378 38.0316C31.5687 37.0258 33.356 37.5948 33.356 37.5948V34.2196C33.7906 34.2085 34.2253 34.2342 34.655 34.2966V38.6401C34.655 38.6401 32.8682 38.0711 31.4374 39.0774C30.4379 39.8196 29.9061 40.5445 29.7504 41.8384C29.7455 42.541 29.8774 43.4594 30.4846 44.2536C30.3344 44.1766 30.1814 44.0889 30.0255 43.9904C28.688 43.0923 28.4444 41.7448 28.4509 40.7926ZM42.0351 27.9789C41.0508 26.9003 40.6785 25.8113 40.544 25.0463H41.7822C41.7822 25.0463 41.5353 27.0522 43.3346 29.0248L43.3596 29.0513C42.8746 28.7462 42.4299 28.3862 42.0351 27.9789ZM48 31.0369V35.293C48 35.293 46.4199 35.2311 45.2506 34.9336C43.6179 34.5176 42.5684 33.8795 42.5684 33.8795C42.5684 33.8795 41.8435 33.4244 41.7849 33.3927V42.1817C41.7849 42.671 41.6509 43.8932 41.2423 44.9125C40.7089 46.2459 39.8858 47.1211 39.7344 47.3C39.7344 47.3 38.7333 48.4832 36.9671 49.2799C35.3751 49.9986 33.9773 49.9804 33.5595 49.9986C33.5595 49.9986 31.1433 50.0943 28.9691 48.6813C28.4989 48.3699 28.06 48.0171 27.6581 47.6277L27.669 47.6355C29.8437 49.0485 32.2594 48.9528 32.2594 48.9528C32.6778 48.9346 34.0755 48.9528 35.667 48.2341C37.4316 47.4373 38.4343 46.2542 38.4343 46.2542C38.5841 46.0753 39.411 45.2001 39.9422 43.8661C40.3497 42.8473 40.4848 41.6247 40.4848 41.1353V32.3474C40.5434 32.3796 41.2678 32.8347 41.2678 32.8347C41.2678 32.8347 42.3178 33.4733 43.9505 33.8888C45.1203 34.1863 46.6999 34.2482 46.6999 34.2482V30.9131C47.2403 31.0343 47.701 31.067 48 31.0369Z" fill="#EE1D52"/><path d="M46.7004 30.9131V34.2472C46.7004 34.2472 45.1209 34.1853 43.951 33.8878C42.3183 33.4718 41.2684 32.8336 41.2684 32.8336C41.2684 32.8336 40.544 32.3786 40.4854 32.3464V41.1363C40.4854 41.6257 40.3514 42.8484 39.9428 43.8672C39.4094 45.2011 38.5863 46.0763 38.4349 46.2552C38.4349 46.2552 37.4332 47.4384 35.6676 48.2351C34.0761 48.9538 32.6783 48.9356 32.26 48.9538C32.26 48.9538 29.8443 49.0495 27.6695 47.6365L27.6587 47.6287C27.429 47.4064 27.2129 47.1716 27.0113 46.9256C26.3173 46.0795 25.8919 45.0789 25.785 44.7934C25.7848 44.7922 25.7848 44.7909 25.785 44.7897C25.613 44.2936 25.2516 43.1021 25.301 41.9481C25.3884 39.9121 26.1046 38.6624 26.294 38.3494C26.7955 37.4956 27.4478 36.7318 28.2219 36.0918C28.9049 35.5396 29.6792 35.1002 30.5128 34.7917C31.414 34.4294 32.379 34.2353 33.356 34.2196V37.5948C33.356 37.5948 31.5687 37.0279 30.1384 38.0316C29.1384 38.7742 28.6077 39.4987 28.4514 40.7926C28.4449 41.7448 28.6885 43.0923 30.025 43.9909C30.1809 44.0897 30.3339 44.1775 30.484 44.2541C30.7175 44.5576 31.0017 44.822 31.3251 45.0368C32.6306 45.8631 33.7245 45.9209 35.1233 45.3842C36.0561 45.0253 36.7582 44.2166 37.0838 43.3206C37.2883 42.761 37.2856 42.1978 37.2856 41.6153V25.0463H40.5413C40.6758 25.8113 41.0481 26.9003 42.0324 27.9789C42.4272 28.3862 42.8719 28.7462 43.3569 29.0513C43.5001 29.1995 44.2326 29.9323 45.173 30.3821C45.6592 30.6146 46.1717 30.7928 46.7004 30.9131Z" fill="white"/><path d="M24.4893 43.757V43.7596L24.5701 43.9785C24.5608 43.953 24.5308 43.8755 24.4893 43.757Z" fill="#69C9D0"/><path d="M30.5128 34.7917C29.6792 35.1002 28.905 35.5396 28.2219 36.0918C27.4476 36.7333 26.7955 37.4987 26.2946 38.3541C26.1052 38.6661 25.389 39.9169 25.3016 41.9529C25.2522 43.1069 25.6136 44.2983 25.7856 44.7945C25.7854 44.7957 25.7854 44.7969 25.7856 44.7981C25.8941 45.081 26.3179 46.0816 27.0119 46.9303C27.2135 47.1764 27.4296 47.4111 27.6592 47.6334C26.9236 47.1458 26.2675 46.5562 25.7124 45.884C25.0243 45.0451 24.6 44.0549 24.4893 43.7627C24.4892 43.7606 24.4892 43.7585 24.4893 43.7564V43.7528C24.3168 43.2572 23.9543 42.0652 24.0048 40.9096C24.0921 38.8736 24.8084 37.6239 24.9977 37.3109C25.4985 36.4554 26.1507 35.6899 26.9251 35.0486C27.608 34.4962 28.3823 34.0568 29.216 33.7485C29.736 33.5417 30.2778 33.3891 30.8319 33.2934C31.6669 33.1537 32.5198 33.1416 33.3588 33.2575V34.2196C32.3808 34.235 31.4148 34.4291 30.5128 34.7917Z" fill="#69C9D0"/><path d="M40.544 25.0464H37.2883V41.6159C37.2883 42.1983 37.2883 42.76 37.0865 43.3211C36.7576 44.2167 36.0582 45.0253 35.126 45.3842C33.7266 45.923 32.6327 45.8632 31.3278 45.0368C31.0038 44.823 30.7189 44.5594 30.4845 44.2567C31.5963 44.8251 32.5915 44.8152 33.8243 44.341C34.756 43.9821 35.4565 43.1734 35.7842 42.2774C35.9893 41.7178 35.9866 41.1546 35.9866 40.5726V24H40.4821C40.4821 24 40.4316 24.4119 40.544 25.0464ZM46.7004 29.991V30.9131C46.1726 30.7926 45.661 30.6145 45.1757 30.3821C44.2353 29.9323 43.5028 29.1995 43.3596 29.0513C43.5258 29.1559 43.6983 29.2511 43.8761 29.3363C45.0194 29.8834 46.1453 30.0467 46.7004 29.991Z" fill="#69C9D0"/><g filter="url(#filter2_f_29_256)"><ellipse cx="36.5" cy="60.5" rx="11.5" ry="6.5" fill="#ED2256"/></g></g><rect x="12" y="13" width="48" height="48" rx="12" stroke="url(#paint1_linear_29_256)" stroke-opacity="0.5" stroke-width="0.8" shape-rendering="crispEdges"/></g><g style="mix-blend-mode: screen;" filter="url(#filter3_f_29_256)" transform="matrix(0.951696, 0, 0, 0.965243, -9.10175, -10.671263)" id="object-1"><circle cx="29" cy="30" r="9" fill="white" fill-opacity="0.18"/></g></svg>