<svg width="25" height="25" viewBox="0 0 25 25" fill="none" xmlns="http://www.w3.org/2000/svg">
    <path d="M5.86701 13.07C5.98995 13.0175 6.12217 12.9903 6.25584 12.9898C6.3895 12.9893 6.52191 13.0156 6.64524 13.0672C6.76856 13.1188 6.88029 13.1945 6.97383 13.29C7.06736 13.3855 7.14081 13.4988 7.18982 13.6231C7.23882 13.7475 7.2624 13.8804 7.25916 14.014C7.25591 14.1477 7.22591 14.2793 7.17093 14.4011C7.11594 14.523 7.03709 14.6325 6.93902 14.7234C6.84096 14.8142 6.72569 14.8845 6.60001 14.93C5.93155 15.1934 5.35784 15.6519 4.95351 16.2458C4.54919 16.8397 4.33298 17.5415 4.33301 18.26V20C4.33301 20.2652 4.43836 20.5196 4.6259 20.7071C4.81344 20.8946 5.06779 21 5.33301 21H13.333C13.5982 21 13.8526 20.8946 14.0401 20.7071C14.2277 20.5196 14.333 20.2652 14.333 20V18.353C14.3331 17.6115 14.1079 16.8874 13.6871 16.2768C13.2664 15.6662 12.67 15.1979 11.977 14.934C11.8505 14.8901 11.7342 14.8213 11.6348 14.7316C11.5355 14.6419 11.4551 14.5332 11.3985 14.4119C11.342 14.2905 11.3103 14.1591 11.3055 14.0253C11.3007 13.8916 11.3228 13.7582 11.3704 13.6331C11.4181 13.508 11.4904 13.3938 11.583 13.2972C11.6757 13.2006 11.7868 13.1235 11.9098 13.0706C12.0327 13.0177 12.1651 12.9901 12.2989 12.9893C12.4328 12.9885 12.5654 13.0146 12.689 13.066C13.7606 13.4742 14.6829 14.1983 15.3337 15.1425C15.9844 16.0867 16.3329 17.2063 16.333 18.353V20C16.333 20.7956 16.0169 21.5587 15.4543 22.1213C14.8917 22.6839 14.1287 23 13.333 23H5.33301C4.53736 23 3.7743 22.6839 3.21169 22.1213C2.64908 21.5587 2.33301 20.7956 2.33301 20V18.26C2.33315 17.1402 2.67028 16.0463 3.30057 15.1206C3.93085 14.195 4.82511 13.4805 5.86701 13.07ZM9.33301 3C10.3939 3 11.4113 3.42143 12.1614 4.17157C12.9116 4.92172 13.333 5.93913 13.333 7V9C13.333 10.0609 12.9116 11.0783 12.1614 11.8284C11.4113 12.5786 10.3939 13 9.33301 13C8.27214 13 7.25473 12.5786 6.50458 11.8284C5.75444 11.0783 5.33301 10.0609 5.33301 9V7C5.33301 5.93913 5.75444 4.92172 6.50458 4.17157C7.25473 3.42143 8.27214 3 9.33301 3ZM9.33301 5C8.80257 5 8.29387 5.21071 7.91879 5.58579C7.54372 5.96086 7.33301 6.46957 7.33301 7V9C7.33301 9.53043 7.54372 10.0391 7.91879 10.4142C8.29387 10.7893 8.80257 11 9.33301 11C9.86344 11 10.3721 10.7893 10.7472 10.4142C11.1223 10.0391 11.333 9.53043 11.333 9V7C11.333 6.46957 11.1223 5.96086 10.7472 5.58579C10.3721 5.21071 9.86344 5 9.33301 5ZM18.333 22C18.0678 22 17.8134 21.8946 17.6259 21.7071C17.4384 21.5196 17.333 21.2652 17.333 21C17.333 20.7348 17.4384 20.4804 17.6259 20.2929C17.8134 20.1054 18.0678 20 18.333 20H19.333C19.5982 20 19.8526 19.8946 20.0401 19.7071C20.2277 19.5196 20.333 19.2652 20.333 19V17.162C20.333 16.4512 20.1093 15.7583 19.6936 15.1817C19.2779 14.605 18.6914 14.1738 18.017 13.949C17.8924 13.9075 17.7772 13.8419 17.6779 13.7558C17.5786 13.6698 17.4973 13.5651 17.4385 13.4476C17.3797 13.3301 17.3447 13.2022 17.3353 13.0712C17.326 12.9402 17.3425 12.8086 17.384 12.684C17.4255 12.5594 17.4911 12.4441 17.5772 12.3449C17.6632 12.2456 17.7679 12.1643 17.8854 12.1055C18.0029 12.0467 18.1308 12.0117 18.2618 12.0023C18.3928 11.993 18.5244 12.0095 18.649 12.051C19.7218 12.4085 20.6549 13.0945 21.3161 14.0118C21.9773 14.9291 22.3331 16.0312 22.333 17.162V19C22.333 19.7956 22.0169 20.5587 21.4543 21.1213C20.8917 21.6839 20.1287 22 19.333 22H18.333ZM15.333 4C15.0678 4 14.8134 3.89464 14.6259 3.70711C14.4384 3.51957 14.333 3.26522 14.333 3C14.333 2.73478 14.4384 2.48043 14.6259 2.29289C14.8134 2.10536 15.0678 2 15.333 2C16.3939 2 17.4113 2.42143 18.1614 3.17157C18.9116 3.92172 19.333 4.93913 19.333 6V8C19.333 9.06087 18.9116 10.0783 18.1614 10.8284C17.4113 11.5786 16.3939 12 15.333 12C15.0678 12 14.8134 11.8946 14.6259 11.7071C14.4384 11.5196 14.333 11.2652 14.333 11C14.333 10.7348 14.4384 10.4804 14.6259 10.2929C14.8134 10.1054 15.0678 10 15.333 10C15.8634 10 16.3721 9.78929 16.7472 9.41421C17.1223 9.03914 17.333 8.53043 17.333 8V6C17.333 5.46957 17.1223 4.96086 16.7472 4.58579C16.3721 4.21071 15.8634 4 15.333 4Z" fill="currentColor"/>
    </svg>
    