<?xml version="1.0" encoding="utf-8"?>
<svg width="82" height="81" viewBox="0 0 49.966 49.997" fill="none" preserveAspectRatio="none" xmlns="http://www.w3.org/2000/svg" xmlns:bx="https://boxy-svg.com"><defs><bx:export><bx:file format="svg" path="Sin título.svg"/></bx:export><filter id="filter0_bdi_109_1751" x="-8.40039" y="-7.90002" width="92.8008" height="88.8" filterUnits="userSpaceOnUse" color-interpolation-filters="sRGB"><feFlood flood-opacity="0" result="BackgroundImageFix"/><feGaussianBlur in="BackgroundImageFix" stdDeviation="10"/><feComposite in2="SourceAlpha" operator="in" result="effect1_backgroundBlur_109_1751"/><feColorMatrix in="SourceAlpha" type="matrix" values="0 0 0 0 0 0 0 0 0 0 0 0 0 0 0 0 0 0 127 0" result="hardAlpha"/><feOffset dx="8" dy="4"/><feGaussianBlur stdDeviation="8"/><feComposite in2="hardAlpha" operator="out"/><feColorMatrix type="matrix" values="0 0 0 0 0 0 0 0 0 0 0 0 0 0 0 0 0 0 0.08 0"/><feBlend mode="normal" in2="effect1_backgroundBlur_109_1751" result="effect2_dropShadow_109_1751"/><feBlend mode="normal" in="SourceGraphic" in2="effect2_dropShadow_109_1751" result="shape"/><feColorMatrix in="SourceAlpha" type="matrix" values="0 0 0 0 0 0 0 0 0 0 0 0 0 0 0 0 0 0 127 0" result="hardAlpha"/><feOffset/><feGaussianBlur stdDeviation="4"/><feComposite in2="hardAlpha" operator="arithmetic" k2="-1" k3="1"/><feColorMatrix type="matrix" values="0 0 0 0 0.988235 0 0 0 0 0.0509804 0 0 0 0 0.105882 0 0 0 0.32 0"/><feBlend mode="normal" in2="shape" result="effect3_innerShadow_109_1751"/></filter><filter id="filter1_f_109_1751" x="8" y="8.5" width="56" height="56" filterUnits="userSpaceOnUse" color-interpolation-filters="sRGB"><feFlood flood-opacity="0" result="BackgroundImageFix"/><feBlend mode="normal" in="SourceGraphic" in2="BackgroundImageFix" result="shape"/><feGaussianBlur stdDeviation="6" result="effect1_foregroundBlur_109_1751"/></filter><filter id="filter2_f_109_1751" x="7" y="35.5" width="59" height="49" filterUnits="userSpaceOnUse" color-interpolation-filters="sRGB"><feFlood flood-opacity="0" result="BackgroundImageFix"/><feBlend mode="normal" in="SourceGraphic" in2="BackgroundImageFix" result="shape"/><feGaussianBlur stdDeviation="9" result="effect1_foregroundBlur_109_1751"/></filter><filter id="filter3_f_109_1751" x="0" y="0.5" width="58" height="58" filterUnits="userSpaceOnUse" color-interpolation-filters="sRGB"><feFlood flood-opacity="0" result="BackgroundImageFix"/><feBlend mode="normal" in="SourceGraphic" in2="BackgroundImageFix" result="shape"/><feGaussianBlur stdDeviation="10" result="effect1_foregroundBlur_109_1751"/></filter><linearGradient id="paint0_linear_109_1751" x1="12" y1="12.5" x2="60" y2="60.5" gradientUnits="userSpaceOnUse"><stop stop-color="#F8FBFF"/><stop offset="1" stop-color="white" stop-opacity="0"/></linearGradient><linearGradient id="paint1_linear_109_1751" x1="13" y1="11.5" x2="58.5" y2="60.5" gradientUnits="userSpaceOnUse"><stop stop-color="#D8D8D8" stop-opacity="0.05"/><stop offset="1" stop-color="white" stop-opacity="0.4"/></linearGradient><clipPath id="clip0_109_1751"><rect x="12" y="12.5" width="48" height="48" rx="12" fill="white"/></clipPath></defs><g filter="url(#filter0_bdi_109_1751)" transform="matrix(0.960755, 0, 0, 0.966278, -9.645315, -10.257526)" style=""><g clip-path="url(#clip0_109_1751)"><rect x="12" y="12.5" width="48" height="48" rx="12" fill="url(#paint0_linear_109_1751)" fill-opacity="0.04" shape-rendering="crispEdges"/><g style="mix-blend-mode:plus-lighter" opacity="0.5" filter="url(#filter1_f_109_1751)"><path d="M22.2445 30.4411C22.373 28.4623 23.9639 26.9116 25.9445 26.8134C28.8124 26.6714 32.9115 26.5 36 26.5C39.0885 26.5 43.1876 26.6714 46.0555 26.8134C48.0361 26.9116 49.627 28.4623 49.7555 30.4411C49.8786 32.3369 50 34.6697 50 36.5C50 38.3303 49.8786 40.6631 49.7555 42.5589C49.627 44.5377 48.0361 46.0884 46.0555 46.1866C43.1876 46.3286 39.0885 46.5 36 46.5C32.9115 46.5 28.8124 46.3286 25.9445 46.1866C23.9639 46.0884 22.373 44.5377 22.2445 42.5589C22.1214 40.6631 22 38.3303 22 36.5C22 34.6697 22.1214 32.3369 22.2445 30.4411Z" fill="#FC0D1B"/><path d="M33 32.5V40.5L41 36.5L33 32.5Z" fill="#F9F9F9"/></g><path d="M22.2445 30.4411C22.373 28.4623 23.9639 26.9116 25.9445 26.8134C28.8124 26.6714 32.9115 26.5 36 26.5C39.0885 26.5 43.1876 26.6714 46.0555 26.8134C48.0361 26.9116 49.627 28.4623 49.7555 30.4411C49.8786 32.3369 50 34.6697 50 36.5C50 38.3303 49.8786 40.6631 49.7555 42.5589C49.627 44.5377 48.0361 46.0884 46.0555 46.1866C43.1876 46.3286 39.0885 46.5 36 46.5C32.9115 46.5 28.8124 46.3286 25.9445 46.1866C23.9639 46.0884 22.373 44.5377 22.2445 42.5589C22.1214 40.6631 22 38.3303 22 36.5C22 34.6697 22.1214 32.3369 22.2445 30.4411Z" fill="#FC0D1B"/><path d="M33 32.5V40.5L41 36.5L33 32.5Z" fill="#F9F9F9"/><g filter="url(#filter2_f_109_1751)"><ellipse cx="36.5" cy="60" rx="11.5" ry="6.5" fill="#FC0D1B"/></g></g><rect x="12" y="12.5" width="48" height="48" rx="12" stroke="url(#paint1_linear_109_1751)" stroke-opacity="0.5" stroke-width="0.8" shape-rendering="crispEdges"/></g><g style="mix-blend-mode: screen;" filter="url(#filter3_f_109_1751)" transform="matrix(0.960755, 0, 0, 0.966278, -9.645315, -10.257526)"><circle cx="29" cy="29.5" r="9" fill="white" fill-opacity="0.18"/></g></svg>